<svg xmlns="http://www.w3.org/2000/svg" width="124" height="112" fill="none">
    <path fill="#1B3649" d="M5 0h115v112H5z" />
    <path fill="#ED174D" d="M0 0h8v112H0z" />
    <path fill="#fff"
        d="M25.536 39.91V61h-4.459V39.91h4.46Zm4.532 9.175v3.48h-6.735v-3.48h6.735Zm18.361 1.37c0 2.3-.435 4.256-1.307 5.87-.865 1.613-2.046 2.845-3.543 3.697-1.49.844-3.165 1.266-5.026 1.266-1.874 0-3.556-.425-5.046-1.277-1.49-.851-2.667-2.083-3.532-3.697-.865-1.613-1.298-3.566-1.298-5.86 0-2.3.433-4.256 1.298-5.87.865-1.613 2.042-2.842 3.532-3.686 1.49-.852 3.172-1.277 5.046-1.277 1.861 0 3.536.425 5.026 1.277 1.497.844 2.678 2.073 3.543 3.686.872 1.614 1.307 3.57 1.307 5.87Zm-4.52 0c0-1.49-.224-2.747-.67-3.77-.44-1.023-1.06-1.798-1.864-2.327-.803-.529-1.744-.793-2.822-.793-1.077 0-2.018.264-2.821.793-.804.529-1.428 1.304-1.875 2.327-.439 1.023-.659 2.28-.659 3.77 0 1.49.22 2.746.66 3.769.446 1.023 1.07 1.799 1.874 2.327.803.529 1.744.793 2.821.793 1.078 0 2.019-.264 2.822-.793.803-.529 1.425-1.304 1.864-2.327.446-1.023.67-2.28.67-3.77ZM51.719 61V39.91h8.322c1.6 0 2.962.305 4.088.916 1.126.604 1.984 1.445 2.575 2.523.597 1.07.896 2.307.896 3.707s-.302 2.637-.906 3.708c-.605 1.07-1.48 1.905-2.627 2.502-1.14.597-2.52.896-4.14.896h-5.303v-3.574h4.583c.858 0 1.565-.147 2.121-.442.563-.303.982-.718 1.256-1.246.282-.536.423-1.15.423-1.844 0-.7-.141-1.311-.422-1.833a2.82 2.82 0 0 0-1.257-1.225c-.563-.296-1.277-.443-2.142-.443H56.18V61h-4.46Zm17.974-17.414v-3.677h17.322v3.677h-6.457V61H76.15V43.586h-6.457Zm38.593 6.869c0 2.3-.436 4.256-1.308 5.87-.865 1.613-2.046 2.845-3.543 3.697-1.49.844-3.165 1.266-5.025 1.266-1.875 0-3.557-.425-5.046-1.277-1.49-.851-2.668-2.083-3.533-3.697-.865-1.613-1.297-3.566-1.297-5.86 0-2.3.432-4.256 1.297-5.87.865-1.613 2.043-2.842 3.532-3.686 1.49-.852 3.172-1.277 5.047-1.277 1.86 0 3.535.425 5.025 1.277 1.497.844 2.678 2.073 3.543 3.686.872 1.614 1.308 3.57 1.308 5.87Zm-4.521 0c0-1.49-.223-2.747-.67-3.77-.439-1.023-1.06-1.798-1.864-2.327-.803-.529-1.743-.793-2.821-.793s-2.019.264-2.822.793c-.803.529-1.428 1.304-1.874 2.327-.44 1.023-.66 2.28-.66 3.77 0 1.49.22 2.746.66 3.769.446 1.023 1.07 1.799 1.874 2.327.803.529 1.744.793 2.822.793s2.018-.264 2.821-.793c.804-.529 1.425-1.304 1.864-2.327.447-1.023.67-2.28.67-3.77Z" />
    <path fill="#D9D9D9"
        d="M28.242 70.21v-.937h6.545v.937h-2.744V78h-1.057v-7.79h-2.744ZM36.418 78v-8.727h2.949c.685 0 1.244.123 1.679.37.438.245.761.576.972.993.21.418.315.884.315 1.398 0 .514-.105.982-.315 1.402-.208.42-.529.756-.964 1.006-.434.247-.991.37-1.67.37H37.27v-.937h2.08c.469 0 .845-.081 1.13-.243.283-.162.49-.38.617-.656a2.19 2.19 0 0 0 .196-.942c0-.35-.065-.662-.196-.937a1.398 1.398 0 0 0-.622-.648c-.287-.16-.668-.239-1.142-.239h-1.858V78h-1.057Zm7.085 0h-1.108l3.204-8.727h1.091L49.895 78h-1.108l-2.608-7.347h-.068L43.503 78Zm.409-3.41h4.466v.938h-4.466v-.937ZM56.385 78l-3-4.006H52.31V78h-1.057v-8.727h1.057v3.784h.46l3.494-3.784h1.262l-3.529 3.835L57.646 78h-1.261Zm10.042-1.006-.12 3.069h-1.09V78h-.614v-1.006h1.824ZM59.012 78v-8.727h1.006v7.755h4.5v-7.755h1.005V78h-6.511Zm9.012 0v-8.727h5.267v.937h-4.21v2.95h3.937v.937H69.08v2.966h4.279V78h-5.335Zm7.171 0v-8.727h1.057v3.886h4.654v-3.886h1.056V78h-1.056v-3.903h-4.654V78h-1.056Zm8.406-7.79v-.937h6.546v.937h-2.745V78h-1.057v-7.79h-2.744ZM91.778 78v-8.727h2.948c.685 0 1.245.123 1.68.37.437.245.76.576.971.993.21.418.315.884.315 1.398 0 .514-.105.982-.315 1.402-.207.42-.528.756-.963 1.006-.435.247-.992.37-1.67.37H92.63v-.937h2.08c.468 0 .845-.081 1.129-.243.284-.162.49-.38.618-.656a2.19 2.19 0 0 0 .196-.942c0-.35-.066-.662-.197-.937a1.398 1.398 0 0 0-.622-.648c-.287-.16-.667-.239-1.142-.239h-1.858V78h-1.056Z" />
</svg>